<svg xmlns="http://www.w3.org/2000/svg" xmlns:xlink="http://www.w3.org/1999/xlink" width="30" height="29" viewBox="0 0 30 29">
  <defs>
    <clipPath id="clip-path">
      <rect width="30" height="29" fill="none"/>
    </clipPath>
  </defs>
  <g id="Cart_Icon_Symbol" data-name="Cart Icon Symbol" clip-path="url(#clip-path)">
    <g id="Cart_Icon" data-name="Cart Icon">
      <path id="Shape" d="M23.13,29a2.278,2.278,0,0,1-1.689-.717,2.383,2.383,0,0,1-.694-1.714,2.383,2.383,0,1,1,4.765,0,2.383,2.383,0,0,1-.694,1.714A2.276,2.276,0,0,1,23.13,29ZM9,29a2.276,2.276,0,0,1-1.687-.717,2.383,2.383,0,0,1-.694-1.714A2.381,2.381,0,0,1,9,24.17a2.3,2.3,0,0,1,1.687.7,2.324,2.324,0,0,1,.7,1.7,2.384,2.384,0,0,1-.7,1.714A2.271,2.271,0,0,1,9,29Zm16.978-5.694H6.648a1.541,1.541,0,0,1-1.192-.566,1.628,1.628,0,0,1-.363-1.3l.826-4.529L4.662,4.191,1.088,3.059a1.478,1.478,0,0,1-.91-.767,1.658,1.658,0,0,1-.115-1.2A1.467,1.467,0,0,1,.839.178,1.684,1.684,0,0,1,1.575,0a1.648,1.648,0,0,1,.439.062L6.581,1.527a1.408,1.408,0,0,1,.712.5,1.757,1.757,0,0,1,.348.832l.264,2.531L28.623,7.721a1.479,1.479,0,0,1,1.059.632,1.507,1.507,0,0,1,.3,1.2l-1.258,7.259a1.374,1.374,0,0,1-.513.933,1.554,1.554,0,0,1-1.009.367H8.865L8.5,20.176H25.976a1.526,1.526,0,0,1,1.092.448,1.575,1.575,0,0,1,0,2.232A1.527,1.527,0,0,1,25.976,23.306Z" fill="#0096ff"/>
    </g>
  </g>
</svg>
