<svg xmlns="http://www.w3.org/2000/svg" width="20.006" height="20.003" viewBox="0 0 20.006 20.003">
  <g id="instagram-logo" transform="translate(0.003)">
    <path id="Path_79" data-name="Path 79" d="M10.063,1.75h4.025a5.075,5.075,0,0,1,1.887.375,2.263,2.263,0,0,1,1.132.75A2.95,2.95,0,0,1,17.862,4a4.988,4.988,0,0,1,.377,1.875v8a4.988,4.988,0,0,1-.377,1.875,2.248,2.248,0,0,1-.755,1.125,2.972,2.972,0,0,1-1.132.75A5.075,5.075,0,0,1,14.088,18H6.038a5.075,5.075,0,0,1-1.887-.375,2.263,2.263,0,0,1-1.132-.75,2.95,2.95,0,0,1-.755-1.125,4.988,4.988,0,0,1-.377-1.875v-8A4.988,4.988,0,0,1,2.264,4a2.248,2.248,0,0,1,.755-1.125,2.972,2.972,0,0,1,1.132-.75A5.075,5.075,0,0,1,6.038,1.75h4.025m0-1.75H5.912a13.433,13.433,0,0,0-2.39.5A5.28,5.28,0,0,0,1.761,1.625,3.839,3.839,0,0,0,.5,3.5,13.2,13.2,0,0,0,0,5.875v8.25A5.046,5.046,0,0,0,.5,16.5a5.239,5.239,0,0,0,1.132,1.75A5.28,5.28,0,0,0,3.4,19.375,9.274,9.274,0,0,0,5.912,20h8.3a5.132,5.132,0,0,0,2.39-.5,4.912,4.912,0,0,0,2.9-2.875A8.027,8.027,0,0,0,20,14.25V6a5.046,5.046,0,0,0-.5-2.375,5.239,5.239,0,0,0-1.132-1.75A5.28,5.28,0,0,0,16.6.75,5.363,5.363,0,0,0,14.214,0Z" fill="#5b5b5b" opacity="0.8"/>
    <path id="Path_80" data-name="Path 80" d="M10.061,4.8a5.2,5.2,0,1,0,5.2,5.2,5.2,5.2,0,0,0-5.2-5.2Zm0,8.626a3.433,3.433,0,1,1,2.447-.992,3.425,3.425,0,0,1-2.447.992Z" fill="#5b5b5b" opacity="0.8"/>
    <circle id="Ellipse_2" data-name="Ellipse 2" cx="1.231" cy="1.231" r="1.231" transform="translate(14.258 3.383)" fill="#5b5b5b" opacity="0.8"/>
  </g>
</svg>
